<?xml version="1.0" encoding="utf-8"?>
<svg version="1.1" xmlns:xlink="http://www.w3.org/1999/xlink" width="40px" height="50px" xmlns="http://www.w3.org/2000/svg">
  <defs>
    <filter x="451px" y="40px" width="40px" height="50px" filterUnits="userSpaceOnUse" id="filter2">
      <feOffset dx="1" dy="1" in="SourceAlpha" result="shadowOffsetInner" />
      <feGaussianBlur stdDeviation="2.5" in="shadowOffsetInner" result="shadowGaussian" />
      <feComposite in2="shadowGaussian" operator="atop" in="SourceAlpha" result="shadowComposite" />
      <feColorMatrix type="matrix" values="0 0 0 0 0  0 0 0 0 0  0 0 0 0 0  0 0 0 0.698039215686274 0  " in="shadowComposite" />
    </filter>
    <g id="widget3">
      <path d="M 470 83.0369284683536  C 464.2 73.4073405959099  455.5 67.6295878724437  455.5 58  C 455.5 52.9857142857143  458.4 44.5  470 44.5  C 481.6 44.5  484.5 52.9857142857143  484.5 58  C 484.5 67.6295878724437  475.8 73.4073405959099  470 83.0369284683536  Z " fill-rule="nonzero" fill="#009dd9" stroke="none" />
      <path d="M 470 84  C 464 74  455 68  455 58  C 455 52.8  458 44  470 44  C 482 44  485 52.8  485 58  C 485 68  476 74  470 84  Z M 470 82.0738569367072  C 475.6 72.8146811918198  484 67.2591757448874  484 58  C 484 53.1714285714286  481.2 45  470 45  C 458.8 45  456 53.1714285714286  456 58  C 456 67.2591757448874  464.4 72.8146811918198  470 82.0738569367072  Z " fill-rule="nonzero" fill="#ffffff" stroke="none" />
    </g>
  </defs>
  <g transform="matrix(1 0 0 1 -451 -40 )">
    <use xlink:href="#widget3" filter="url(#filter2)" />
    <use xlink:href="#widget3" />
  </g>
</svg>