<?xml version="1.0" encoding="utf-8"?>
<svg version="1.1" xmlns:xlink="http://www.w3.org/1999/xlink" width="150px" height="98px" xmlns="http://www.w3.org/2000/svg">
  <g transform="matrix(1 0 0 1 -509 -132 )">
    <path d="M 509 132  L 659 132  L 659 230  L 509 230  L 509 132  " fill-rule="nonzero" fill="#cccccc" stroke="none" />
    <path d="M 516 139  L 652 139  L 652 223  L 516 223  L 516 139  " fill-rule="nonzero" fill="#ffffff" stroke="none" />
    <path d="M 594.35 161.4  C 590.234 161.4  587 158.166  587 154.05  C 587 149.934  590.234 146.7  594.35 146.7  C 598.466 146.7  601.7 149.934  601.7 154.05  C 601.7 158.166  598.466 161.4  594.35 161.4  " fill-rule="nonzero" fill="#cccccc" stroke="none" />
    <path d="M 519 221  L 519 177.55  L 551.75 157.8  L 597.6 190.032  L 623.8 169.65  L 650 190.032  L 650 221  L 519 221  " fill-rule="nonzero" fill="#169bd5" stroke="none" />
  </g>
</svg>